# xmcd
#
# Track frame offsets:
#	150
#	6947
#	27038
#	68800
#	99769
#	101218
#	114106
#	140297
#	169059
#	200946
#	219542
#	250792
#	289711
#
# Disc length: 4188 seconds
#
# Revision: 1
# Processed by: cddbd v1.5.2PL0 Copyright (c) Steve Scherf et al.
# Submitted via: audiograbber 1.83.01
#
DISCID=b1105a0d
DTITLE=Grateful Dead - 73-11-20A Denver Coliseum, Denver CO
DYEAR=1900
DGENRE=
TTITLE0=WRS Prelude
TTITLE1=WRS Part One
TTITLE2=Let It Grow
TTITLE3=Casey Jones
TTITLE4=Tuning
TTITLE5=Promised Land
TTITLE6=Bertha
TTITLE7=Greatest Story Ever Told
TTITLE8=Mississippi Half-Step
TTITLE9=Dire Wolf
TTITLE10=Looks Like Rain
TTITLE11=China Cat Sunflower
TTITLE12=I Know You Rider
EXTD=
EXTT0=
EXTT1=
EXTT2=
EXTT3=
EXTT4=
EXTT5=
EXTT6=
EXTT7=
EXTT8=
EXTT9=
EXTT10=
EXTT11=
EXTT12=
PLAYORDER=
